<svg xmlns="http://www.w3.org/2000/svg" viewBox="0 0 48.76 46.98"><defs><style>.cls-1{fill:#ff5a4d;}</style></defs><title>Recurso 9</title><g id="Capa_2" data-name="Capa 2"><g id="OBJECTS"><path class="cls-1" d="M26.74,28.33H38.65a15.12,15.12,0,0,1-14.38,9.73c-8-.06-14.69-6.25-15-14-.34-8.3,6.57-15.16,15.12-15.16A15.37,15.37,0,0,1,34.54,12.7a1.69,1.69,0,0,0,2.23,0l4.38-4a1.52,1.52,0,0,0,0-2.28A24.77,24.77,0,0,0,24.87,0C11.43-.25.09,10.37,0,23.32S10.86,47,24.39,47c13,0,23.63-9.81,24.34-22.17,0-.16,0-5.39,0-5.39h-22A1.6,1.6,0,0,0,25.11,21v5.77a1.6,1.6,0,0,0,1.63,1.57Z"/></g></g></svg>