<svg xmlns="http://www.w3.org/2000/svg" viewBox="0 0 48.76 46.98"><defs><style>.cls-1{fill:#38a873;}</style></defs><title>Recurso 8</title><g id="Capa_2" data-name="Capa 2"><g id="OBJECTS"><path class="cls-1" d="M41.64,6.83A24.59,24.59,0,0,0,24.47,0C11.1,0,.21,10.45.2,23.27A22.67,22.67,0,0,0,3.43,34.91L0,47l12.87-3.24a25.07,25.07,0,0,0,11.6,2.83h0c13.37,0,24.26-10.44,24.27-23.28A22.73,22.73,0,0,0,41.64,6.83ZM24.47,42.63a20.78,20.78,0,0,1-10.27-2.7l-.74-.42L5.83,41.43l2-7.14-.48-.74A18.66,18.66,0,0,1,4.31,23.26c0-10.65,9.05-19.33,20.18-19.33A20.49,20.49,0,0,1,38.75,9.6a18.88,18.88,0,0,1,5.91,13.68C44.64,34,35.59,42.63,24.47,42.63ZM35.54,28.15c-.6-.29-3.58-1.7-4.14-1.9s-1-.29-1.36.29-1.57,1.9-1.92,2.28-.71.43-1.32.14a16.53,16.53,0,0,1-4.87-2.89,17.71,17.71,0,0,1-3.38-4c-.35-.58,0-.89.27-1.18s.6-.68.91-1a3.86,3.86,0,0,0,.6-1,1,1,0,0,0,0-1c-.16-.29-1.37-3.16-1.88-4.32s-1-1-1.36-1-.76,0-1.16,0a2.27,2.27,0,0,0-1.62.73,6.4,6.4,0,0,0-2.12,4.85c0,2.87,2.17,5.63,2.48,6S18.9,30.38,25,32.9a33.27,33.27,0,0,0,3.45,1.23,8.71,8.71,0,0,0,3.82.24c1.16-.17,3.58-1.41,4.1-2.77a4.61,4.61,0,0,0,.34-2.77C36.55,28.58,36.15,28.44,35.54,28.15Z"/></g></g></svg>