<svg xmlns="http://www.w3.org/2000/svg" width="49.41" height="48.379" viewBox="0 0 49.41 48.379"><defs><style>.a{isolation:isolate;}.b{fill:#42b983;}</style></defs><g class="a" transform="translate(-10 -10.272)"><path class="b" d="M46.328,28.231l-8.117-4.676a3.529,3.529,0,0,0-3.529,0l-8.117,4.676A3.529,3.529,0,0,0,24.8,31.284v9.37a3.529,3.529,0,0,0,1.765,3.053l8.117,4.676a3.529,3.529,0,0,0,3.529,0l8.117-4.606a3.529,3.529,0,0,0,1.765-3.053v-9.37A3.529,3.529,0,0,0,46.328,28.231Zm-.882,12.352a.882.882,0,0,1-.441.759l-8.117,4.676a.882.882,0,0,1-.882,0l-8.117-4.676a.882.882,0,0,1-.441-.759V31.355a.882.882,0,0,1,.441-.759l8.117-4.676a.882.882,0,0,1,.882,0L45,30.6a.882.882,0,0,1,.441.759Z" transform="translate(11.316 9.795)"/><path class="b" d="M31.528,28.231l-8.117-4.676a3.529,3.529,0,0,0-3.529,0l-8.117,4.676A3.529,3.529,0,0,0,10,31.284v9.37a3.529,3.529,0,0,0,1.765,3.053l8.117,4.676a3.529,3.529,0,0,0,3.529,0l8.117-4.676a3.529,3.529,0,0,0,1.765-3.053v-9.3A3.529,3.529,0,0,0,31.528,28.231Zm-.882,12.352a.882.882,0,0,1-.441.759l-8.117,4.676a.882.882,0,0,1-.882,0l-8.117-4.676a.882.882,0,0,1-.441-.759V31.355a.882.882,0,0,1,.441-.759l8.117-4.676a.882.882,0,0,1,.882,0L30.2,30.6a.882.882,0,0,1,.441.759Z" transform="translate(0 9.795)"/><path class="b" d="M38.928,15.421l-8.117-4.676h0a3.529,3.529,0,0,0-3.529,0l-8.117,4.676A3.529,3.529,0,0,0,17.4,18.474v9.37A3.529,3.529,0,0,0,19.165,30.9l8.117,4.676a3.529,3.529,0,0,0,3.529,0l8.117-4.606a3.529,3.529,0,0,0,1.765-3.053V18.474A3.529,3.529,0,0,0,38.928,15.421Zm-.882,12.352a.882.882,0,0,1-.441.759l-8.117,4.676a.882.882,0,0,1-.882,0l-8.117-4.676a.882.882,0,0,1-.441-.759v-9.3a.882.882,0,0,1,.441-.759l8.117-4.676a.882.882,0,0,1,.882,0L37.6,17.715a.882.882,0,0,1,.441.759Z" transform="translate(5.658 0)"/></g></svg>