<svg xmlns="http://www.w3.org/2000/svg" viewBox="0 0 48.76 46.98"><defs><style>.cls-1{fill:#f4814e;}.cls-2{fill:#fff;}.cls-3{fill:#fcfcfc;}</style></defs><title>Recurso 6</title><g id="Capa_2" data-name="Capa 2"><g id="OBJECTS"><path class="cls-1" d="M44.7,6.59v4.95L22.76,5.77l-22,5.77V6.59l22-5.77Z"/><path class="cls-2" d="M22.76,28h5.69V41.21H22.76Z"/><path class="cls-2" d="M17.07,28h5.69V41.21H17.07Z"/><path class="cls-2" d="M35.76,19v3.57a6.3,6.3,0,0,0-.8.55H27.63V19a4.07,4.07,0,1,1,8.13,0Z"/><path class="cls-3" d="M17.88,19v4.12H9.75V19a4.07,4.07,0,1,1,8.13,0Z"/><path class="cls-2" d="M40.64,21.47a7.38,7.38,0,0,0-.82,0,8.09,8.09,0,0,0-4.06,1.1,6.3,6.3,0,0,0-.8.55,8.23,8.23,0,0,0-3.26,6.59c0,3.08,3.73,8.41,6.13,11.54l.69.88c.78,1,1.3,1.59,1.3,1.59s.52-.61,1.3-1.59c2.3-2.89,6.83-9,6.83-12.42a8.2,8.2,0,0,0-7.31-8.2ZM39.82,33a3.3,3.3,0,1,1,3.25-3.3A3.28,3.28,0,0,1,39.82,33Z"/><path class="cls-1" d="M35.76,29.67a4.07,4.07,0,1,0,4.06-4.12A4.1,4.1,0,0,0,35.76,29.67Zm6.5,0a2.44,2.44,0,1,1-2.44-2.47A2.46,2.46,0,0,1,42.26,29.67Z"/><path class="cls-1" d="M42.65,41.46c2.47-3.23,6.11-8.54,6.11-11.79a9,9,0,0,0-7.31-8.91V11.54l3,.8.2,0a.82.82,0,0,0,.81-.82V6.59a.83.83,0,0,0-.61-.8L23,0a.94.94,0,0,0-.41,0L.61,5.79a.83.83,0,0,0-.61.8v4.95a.84.84,0,0,0,.32.65.83.83,0,0,0,.7.15l3-.8V41.21a.82.82,0,0,0,.82.82H35.09c-1,.46-1.77,1.14-1.77,2.06,0,2,3.37,2.89,6.5,2.89s6.51-.91,6.51-2.89C46.33,42.67,44.61,41.84,42.65,41.46Zm4.49-11.79c0,3.19-4.82,9.7-7.32,12.74-2.49-3-7.31-9.55-7.31-12.74a7.32,7.32,0,1,1,14.63,0ZM28.45,22.25V19a3.27,3.27,0,0,1,3.26-3.3,3.23,3.23,0,0,1,2.29.95A3.42,3.42,0,0,1,35,19v3.12l-.25.17ZM1.63,10.47V7.23L22.76,1.67,43.89,7.23v3.24L23,5a.94.94,0,0,0-.41,0ZM21.94,40.38H17.88V28.84h4.06Zm5.69,0H23.57V28.84h4.06Zm1.63,0V28a.82.82,0,0,0-.81-.82H17.07a.82.82,0,0,0-.82.82V40.38H5.69V11.11L22.76,6.62l17.06,4.49V20.6a9.07,9.07,0,0,0-3.25.63V19a4.88,4.88,0,1,0-9.75,0v3.29H26V23.9h6.92a9.14,9.14,0,0,0-2.05,5.77c0,2.9,2.92,7.47,5.3,10.71Zm10.56,4.95c-3.12,0-4.77-.91-4.87-1.22.07-.26,1.11-.91,3.22-1.16.57.73,1,1.19,1,1.27a.81.81,0,0,0,1.15.08l.07-.08c.08-.08.47-.54,1-1.27,2.11.25,3.15.9,3.22,1.13C44.6,44.42,42.94,45.33,39.82,45.33Z"/><path class="cls-1" d="M19.51,33.79h1.62v1.65H19.51Z"/><path class="cls-1" d="M24.38,33.79H26v1.65H24.38Z"/><path class="cls-1" d="M18.69,22.25V19a4.88,4.88,0,1,0-9.75,0v3.29H8.13V23.9H19.51V22.25Zm-1.62,0h-6.5V19a3.25,3.25,0,1,1,6.5,0Z"/></g></g></svg>