<svg xmlns="http://www.w3.org/2000/svg" viewBox="0 0 48.76 46.98"><defs><style>.cls-1{fill:#0d6efd;}</style></defs><title>Recurso 7</title><g id="Capa_2" data-name="Capa 2"><g id="OBJECTS"><path class="cls-1" d="M24.38,0a24,24,0,0,0-7.71,46.93c1.22.21,1.68-.51,1.68-1.14s0-2.47,0-4.49c-6.13,1.11-7.71-1.47-8.2-2.83-.28-.69-1.46-2.83-2.5-3.4-.85-.45-2.07-1.57,0-1.6s3.29,1.75,3.75,2.47c2.19,3.65,5.7,2.62,7.1,2A5,5,0,0,1,20,34.71C14.57,34.11,8.9,32,8.9,22.82a9.27,9.27,0,0,1,2.5-6.47A8.54,8.54,0,0,1,11.64,10s2-.63,6.71,2.47a23.34,23.34,0,0,1,12.19,0C35.2,9.3,37.24,10,37.24,10a8.62,8.62,0,0,1,.25,6.39A9.26,9.26,0,0,1,40,22.82c0,9.24-5.7,11.29-11.13,11.89a5.64,5.64,0,0,1,1.65,4.45c0,3.22,0,5.81,0,6.63,0,.63.45,1.38,1.67,1.14A24.06,24.06,0,0,0,24.38,0Z"/></g></g></svg>